<?xml version="1.0" encoding="utf-8"?>
<!-- Generator: Adobe Illustrator 16.0.4, SVG Export Plug-In . SVG Version: 6.00 Build 0)  -->
<!DOCTYPE svg PUBLIC "-//W3C//DTD SVG 1.1//EN" "http://www.w3.org/Graphics/SVG/1.1/DTD/svg11.dtd">
<svg version="1.1" id="Layer_1" xmlns="http://www.w3.org/2000/svg" xmlns:xlink="http://www.w3.org/1999/xlink" x="0px" y="0px"
	 width="80px" height="80px" viewBox="0 0 80 80" enable-background="new 0 0 80 80" xml:space="preserve">
<g id="g9416" transform="matrix(0.18796879,0,0,0.18796879,107.16677,-2145.4475)">
	<path id="path4323" fill="#FFFFFF" d="M-366.026,11502.999
		c-0.714,23.102-3.577,60.222-14.225,79.907c-4.315,7.848-11.539,14.724-19.721,19.722c-19.88,10.754-57.733,13.572-80.85,14.256
		c1.525,5.364,1.686,11.126,0.213,16.685c23.384,0.774,60.092,3.71,79.483,14.199c7.842,4.312,14.721,11.539,19.722,19.722
		c10.684,19.747,13.518,57.205,14.222,80.361c2.398-0.645,4.889-0.987,7.497-0.909c3.213-0.192,6.315,0.202,9.219,1.06
		c0.748-23.14,3.637-59.829,14.199-79.358c4.312-7.846,11.544-14.724,19.727-19.722c19.633-10.625,57.024-13.508,80.356-14.23
		c-1.268-5.465-0.899-11.276,0.826-16.716c-23.098-0.704-60.307-3.522-80.039-14.191c-7.835-4.316-14.713-11.541-19.716-19.724
		c-10.77-19.916-13.581-57.865-14.261-80.972C-354.825,11504.387-360.61,11504.35-366.026,11502.999L-366.026,11502.999z"/>
	<path id="path4326" fill="#FFFFFF" d="M-357.898,11480.607
		c-8.094,0.185-14.568,6.806-14.568,14.902c0,8.232,6.676,14.906,14.903,14.906c8.235,0,14.911-6.674,14.911-14.906
		c0-8.231-6.676-14.902-14.911-14.902H-357.898z M-488.457,11610.156c-8.232,0-14.905,6.673-14.905,14.905v0.337
		c0.187,8.092,6.809,14.565,14.905,14.565c8.232,0,14.905-6.671,14.905-14.902
		C-473.551,11616.829-480.225,11610.156-488.457,11610.156z M-228.012,11611.501c-8.235,0-14.9,6.677-14.9,14.906
		c0,8.231,6.666,14.902,14.9,14.902s14.9-6.671,14.9-14.902v-0.364C-213.293,11617.949-219.918,11611.501-228.012,11611.501z
		 M-358.911,11741.055c-8.227,0-14.9,6.671-14.9,14.9s6.673,14.905,14.9,14.905h0.343c8.092-0.187,14.56-6.806,14.56-14.905
		C-344.008,11747.726-350.674,11741.055-358.911,11741.055z"/>
	<path id="path4328" fill="#2B79C2" d="M-228.022,11544.749c-34.83,0-64.614,21.93-76.33,52.709
		c4.094,1.688,8.287,3.061,12.542,4.193c9.882-25.574,34.663-43.612,63.788-43.612c37.843,0,68.386,30.52,68.386,68.368
		c0,37.851-30.543,68.394-68.386,68.394c-29.307,0-54.213-18.324-63.965-44.155c-4.348,0.998-8.614,2.234-12.682,3.881
		c11.502,31.198,41.511,53.538,76.647,53.538c45.023,0,81.686-36.638,81.686-81.657
		C-146.336,11581.387-182.999,11544.749-228.022,11544.749L-228.022,11544.749z"/>
	<path id="path4330" fill="#2B79C2" d="M-357.563,11413.837
		c-45.015,0-81.684,36.666-81.684,81.687c0,35.416,22.704,65.611,54.294,76.898c1.655-4.104,3.029-8.308,4.164-12.57
		c-26.366-9.483-45.16-34.645-45.16-64.331c0-37.846,30.543-68.389,68.386-68.389c37.853,0,68.371,30.543,68.371,68.389
		c0,29.923-19.088,55.234-45.792,64.534c1.013,4.343,2.276,8.605,3.912,12.679c32.055-11.032,55.169-41.458,55.169-77.213
		C-275.902,11450.5-312.54,11413.837-357.563,11413.837L-357.563,11413.837z"/>
	<path id="path4332" fill="#2B79C2" d="M-488.47,11543.375c-45.018,0-81.66,36.663-81.66,81.687
		c0,45.02,36.643,81.632,81.66,81.632c35.401,0,65.63-22.642,76.925-54.214c-4.117-1.657-8.326-3.008-12.596-4.136
		c-9.497,26.33-34.666,45.08-64.329,45.08c-37.848,0-68.363-30.518-68.363-68.362c0-37.846,30.515-68.392,68.363-68.392
		c29.93,0,55.312,19.08,64.614,45.784c4.32-1.014,8.59-2.269,12.651-3.907C-422.245,11566.499-452.726,11543.375-488.47,11543.375
		L-488.47,11543.375z"/>
	<path id="path4334" fill="#2B79C2" d="M-385.47,11678.736
		c-32.024,11.051-55.12,41.485-55.12,77.208c0,45.018,36.664,81.661,81.686,81.661c45.012,0,81.66-36.644,81.66-81.661
		c0-35.422-22.698-65.643-54.297-76.927c-1.673,4.104-3.029,8.312-4.167,12.572c26.377,9.477,45.163,34.663,45.163,64.354
		c0,37.849-30.517,68.392-68.36,68.392c-37.851,0-68.391-30.543-68.391-68.392c0-29.883,19.056-55.205,45.706-64.536
		C-382.602,11687.08-383.836,11682.8-385.47,11678.736L-385.47,11678.736z"/>
</g>
</svg>
